<svg id="Capa_1" data-name="Capa 1" xmlns="http://www.w3.org/2000/svg" viewBox="0 0 141.73 141.73"><defs><style>.cls-1,.cls-3{fill:#fff;}.cls-2{fill:#1d557d;}.cls-3{font-size:11.83px;font-family:Klavika-Bold, Klavika;font-weight:700;}.cls-4{fill:none;}.cls-5{fill:#5170b6;}</style></defs><circle id="outer_circle" class="cls-1" cx="70.87" cy="70.87" r="70.87"/><path id="blue_ring" class="cls-2" d="M78,14.09A63.86,63.86,0,1,0,141.81,78,63.86,63.86,0,0,0,78,14.09Zm0,111.76A47.9,47.9,0,1,1,125.85,78,47.9,47.9,0,0,1,78,125.85Z" transform="translate(-7.09 -7.09)"/><circle id="inner_circle" class="cls-1" cx="70.87" cy="70.87" r="47.89"/><text id="upper_text" class="cls-3" transform="translate(20.42 56.83) rotate(-71.08)">C</text><text class="cls-3" transform="translate(22.26 51.42) rotate(-64.93)">L</text><text class="cls-3" transform="matrix(0.53, -0.85, 0.85, 0.53, 24.43, 46.6)">U</text><text class="cls-3" transform="matrix(0.63, -0.78, 0.78, 0.63, 28.03, 40.75)">B</text><text class="cls-3" transform="translate(32.08 35.83) rotate(-46.54)"> </text><text class="cls-3" transform="translate(33.43 34.24) rotate(-41.78)">D</text><text class="cls-3" transform="translate(38.35 29.84) rotate(-34.99)">E</text><text class="cls-3" transform="translate(43.24 26.49) rotate(-30.59)"> </text><text class="cls-3" transform="matrix(0.9, -0.43, 0.43, 0.9, 44.97, 25.32)">A</text><text class="cls-3" transform="matrix(0.95, -0.32, 0.32, 0.95, 51.24, 22.33)">L</text><text class="cls-3" transform="translate(56.28 20.55) rotate(-12.33)">G</text><text class="cls-3" transform="translate(62.55 19.14) rotate(-5.08)">O</text><text class="cls-3" transform="translate(69.34 18.5) rotate(2.45)">R</text><text class="cls-3" transform="matrix(0.99, 0.14, -0.14, 0.99, 76.5, 18.88)">I</text><text class="cls-3" transform="translate(79.5 19.23) rotate(12.89)">T</text><text class="cls-3" transform="translate(85.2 20.39) rotate(20.95)">M</text><text class="cls-3" transform="matrix(0.89, 0.46, -0.46, 0.89, 93.38, 23.67)">I</text><text class="cls-3" transform="translate(96.12 24.96) rotate(32.92)">A</text><text class="cls-3" transform="matrix(0.79, 0.61, -0.61, 0.79, 101.95, 28.84)"> </text><text class="cls-3" transform="translate(103.66 30.06) rotate(42.27)">E</text><text class="cls-3" transform="translate(108.02 33.99) rotate(48.71)">S</text><text class="cls-3" transform="translate(111.99 38.48) rotate(55.1)">C</text><text class="cls-3" transform="translate(115.2 42.96) rotate(61.75)">O</text><text class="cls-3" transform="matrix(0.34, 0.94, -0.94, 0.34, 118.5, 48.86)">M</text><path class="cls-4" d="M97.11,39.91a4.8,4.8,0,0,0,2.36-1.79c.32-.37.61-.77.94-1.14.82-.9,1.61-.79,2,.37a6.18,6.18,0,0,1-.41,5.59c-.35.56-.75,1.08-1.2,1.74,1,.12,2.55-1.82,3.14-1.19s-.73,4.75-1.21,5.74a14.37,14.37,0,0,1-5.24,5.48l-1.34.89h0a19.42,19.42,0,0,0,3.65.4c3.59.48,5.26,2.21,5.43,5.83a12.5,12.5,0,0,1-.62,4.73,6.93,6.93,0,0,1-.4.91,21.62,21.62,0,0,1,3.28.41L107.3,69a20.15,20.15,0,0,0-3.92-.41,3.77,3.77,0,0,1-2.41.88l-2.82.15h0c-.11.33-.23.76-.36,1.22a14.47,14.47,0,0,1,1.73.27A14.27,14.27,0,0,1,105,73.66l-.7.93a13,13,0,0,0-5-2.33A11.88,11.88,0,0,0,97.47,72c-.14.48-.27,1-.39,1.37a14.55,14.55,0,0,1,1.47.76,14.75,14.75,0,0,1,3.9,3.37l-.9.73A13.61,13.61,0,0,0,98,75.13a12.83,12.83,0,0,0-1.22-.64,1.16,1.16,0,0,1-.06.15A22.06,22.06,0,0,1,91.08,83a19.17,19.17,0,0,1-5.94,3.46c-.54.15-2.65.91-3.12,1s-.6.34-.41.76a70.1,70.1,0,0,0,3.64,6.36h0a4.08,4.08,0,0,0,5,2c3.2-.79,6.45-1.37,9.39-2.95,3.23-1.73,5-4.61,4.23-8.37a17,17,0,0,1,0-7.13,6.61,6.61,0,0,1,4.76-5.33,7.33,7.33,0,0,1,7.45,1.77c2.4,2.24,3.4,5.22,4.08,8.3.94,4.23,1.36,8.48-.15,12.69a13.75,13.75,0,0,1-5.17,6.91,2.61,2.61,0,0,0-.47.47,77.16,77.16,0,0,1-6.76,3.78A26,26,0,0,1,99,109.17l1.45,2.75h0l1.64,4.32c.24.81.48,1.78.69,2.67a47.91,47.91,0,0,0-4.12-84.15A8.61,8.61,0,0,1,97.11,39.91Z" transform="translate(-7.09 -7.09)"/><path id="inner_body" class="cls-1" d="M94.88,106.22c-2.62-2.75-5.38-5.36-8.08-8a24.08,24.08,0,0,1-5.73-9.26c-.34-1-.45-1.22-1.53-1a22.27,22.27,0,0,1-9.34,0c-6-1.39-10.66-5.06-15.26-8.84-.19-.15-.46-.34-.18-.59s.45.08.63.21a81.89,81.89,0,0,0,7.21,4.57c5.25,3.07,10.75,4.39,16.85,3.22,8.7-1.66,14.8-6.23,17.37-16.93l-.07,0a5.44,5.44,0,0,1-6-4,5.08,5.08,0,0,0-5-3.66,9,9,0,0,0-4.57,1.76,2,2,0,0,0-.66.88,4.88,4.88,0,0,1-4.32,3.06A34.57,34.57,0,0,1,70,67.44c-.56-.06-1.46-.13-2.4-.19l-.18,1a33,33,0,0,0-10.77-.13,32.63,32.63,0,0,0-3.78.82l-.32-1.11A33,33,0,0,1,56.47,67a33.64,33.64,0,0,1,5.85-.38c-1.26-.55-1.91-1.74-2.22-4A23.87,23.87,0,0,1,60,57.62c.22-2.83,2.19-4.78,5.49-5.35a32.83,32.83,0,0,1,11.94.17,12.36,12.36,0,0,1,1.55.44c2.62.89,3.56,2.83,2.6,5.46A14.89,14.89,0,0,0,81.09,61a8.75,8.75,0,0,1,8.55-.54c.91.44.82-.21.85-.75a4.28,4.28,0,0,1,3.89-4c-.19-.49-.17-.93.48-.58.41.22.59.07.84-.13,1.82-1.49,4.71-3.87,5.79-5.56a19.3,19.3,0,0,0,1.62-4.55c0-.43-2.13.8-2.81,1.14-.39.2-1.36.64-1.71.35l-.06-.1c1.51-2.45,3.63-4.7,2.75-8.13a19.05,19.05,0,0,1-3.36,3,10.93,10.93,0,0,1-2.35,1.1A.6.6,0,0,1,94.8,42a.37.37,0,0,1,.12-.53c1.64-1.39,1.88-3.4,2.28-5.31a4.49,4.49,0,0,0,0-2.12l-.49-.21a8,8,0,0,1-2,1.89,19.86,19.86,0,0,1-10.07,3.41c-5,.17-10-.06-15,.36a29.78,29.78,0,0,0-16.58,6.41c-.28.22-.69.38-.76.77-.15.84-.6.57-1.08.35a8.55,8.55,0,0,0-3.34-.82,5.2,5.2,0,0,0-5.33,6.49A13.58,13.58,0,0,0,45.43,58c.3.39,1.13.72.75,1.22s-.85-.38-1.42-.45c-.1.37-.22.75-.31,1.13-1.54,6.76-.52,13.37,1.18,19.94,1.49,5.77,4.91,10.47,8.29,15.21a.86.86,0,0,0,.94.35,8.42,8.42,0,0,1,8.11,5,6.14,6.14,0,0,1,.29,1,.39.39,0,0,1-.2.52c-.23.1-.37,0-.49-.24-.27-.46-.53-.93-.83-1.37C58.83,96,54.39,95.49,50.68,99a17.58,17.58,0,0,0-2.9,3.37,43.34,43.34,0,0,0-4.29,8.83,47.81,47.81,0,0,0,10.45,8.19c0-.12,0-.25.06-.37.75-4.14,3.19-7.26,6.17-10a7.13,7.13,0,0,1,1.33-.88c.23-.13.52-.4.76-.06s-.16.42-.29.6c-.32.45-.66.89-1,1.33h-.06s0,0,0,.08c-.24.25-.47.51-.7.76-.42,4-1.1,7.48-1.77,10.86a46,46,0,0,0,5.44,2,22.6,22.6,0,0,0,3.05-2.22,14.62,14.62,0,0,1,5.62-3.28,5.53,5.53,0,0,1,6.6,2.83,8.2,8.2,0,0,1,.92,4.73,47.67,47.67,0,0,0,21.54-6.19,56,56,0,0,0-1.89-6.07A26.54,26.54,0,0,0,94.88,106.22ZM52,50.17a22.53,22.53,0,0,1-4,5.89c-.43.45-.73.19-1-.12A8.38,8.38,0,0,1,45.15,53c-1-2.88.24-4.61,3.49-4.6,1-.25,2,.56,3.06.93A.54.54,0,0,1,52,50.17Zm19,24c3,1.44,6,2.42,9.42,1.94A5.39,5.39,0,0,0,85.19,72c.16-.59.09-.86-.51-1.11a7.26,7.26,0,0,1-3.08-2.6A2.11,2.11,0,0,1,82.23,65a6.49,6.49,0,0,1,6.62-.2,2.45,2.45,0,0,1,1,3.5,5.25,5.25,0,0,1-2.69,2.62c-.74.28-.86.73-.81,1.42.25,3.24,2.12,4.17,5,2.49,1.06-.63,1.88-1.56,3.12-2.44-.71,2.38-3,4.36-4.93,4.56a3.74,3.74,0,0,1-4-2.27c-2.23,2.61-5.15,3.24-8.36,2.86a15.42,15.42,0,0,1-7.67-3.58C70.23,73.55,70.55,74,70.93,74.17Zm-2.27-1.09a17.67,17.67,0,0,0-8.78,7.23l-1-.62A19.19,19.19,0,0,1,64.32,74a19.53,19.53,0,0,1,3.93-2ZM54,75.85l-.57-1a52.93,52.93,0,0,1,8.12-3.77,53.73,53.73,0,0,1,6.34-1.9l.26,1.13A53.29,53.29,0,0,0,54,75.85Z" transform="translate(-7.09 -7.09)"/><path id="iiner_left_hand" class="cls-1" d="M116.83,98.56a14.92,14.92,0,0,0,2.68-9.94c-.25-4.34-1-8.55-3.57-12.16a6,6,0,0,0-6.4-2.5c-2.58.53-3.89,2.27-4.38,4.77a17.22,17.22,0,0,0,0,6.28,8.45,8.45,0,0,1-4.46,9.47c-3.76,2.17-7.92,2.94-12.44,3.4l.59.52c3.07,3.06,6.46,5.8,9,9.32a.69.69,0,0,0,.82.28,34.09,34.09,0,0,0,11.42-4.23C112.59,102.31,115.11,100.94,116.83,98.56Z" transform="translate(-7.09 -7.09)"/><path id="ear" d="M51.7,49.35c-1.07-.37-2-1.18-3.06-.93-3.25,0-4.5,1.72-3.49,4.6a8.38,8.38,0,0,0,1.79,2.92c.29.31.59.57,1,.12a22.53,22.53,0,0,0,4-5.89A.54.54,0,0,0,51.7,49.35Z" transform="translate(-7.09 -7.09)"/><g id="snout"><path class="cls-1" d="M85.62,70.07C87,70,89,68.12,88.91,67c0-.92-1.37-1.6-3.14-1.61h-.12a4.24,4.24,0,0,0-.62,0c-1,.16-2.13.24-2.51,1.24s.59,1.62,1.23,2.22S84.68,70.13,85.62,70.07Z" transform="translate(-7.09 -7.09)"/><path d="M85.5,74.66a3.74,3.74,0,0,0,4,2.27c2-.2,4.22-2.18,4.93-4.56-1.24.88-2.06,1.81-3.12,2.44-2.85,1.68-4.72.75-5-2.49,0-.69.07-1.14.81-1.42a5.25,5.25,0,0,0,2.69-2.62,2.45,2.45,0,0,0-1-3.5,6.49,6.49,0,0,0-6.62.2,2.11,2.11,0,0,0-.63,3.29,7.26,7.26,0,0,0,3.08,2.6c.6.25.67.52.51,1.11a5.39,5.39,0,0,1-4.84,4.13c-3.37.48-6.44-.5-9.42-1.94-.38-.18-.7-.62-1.46-.23a15.42,15.42,0,0,0,7.67,3.58C80.35,77.9,83.27,77.27,85.5,74.66Zm-1.75-5.81c-.64-.6-1.61-1.24-1.23-2.22s1.54-1.08,2.51-1.24a4.24,4.24,0,0,1,.62,0h.12c1.77,0,3.09.69,3.14,1.61.06,1.15-1.93,3-3.29,3.1C84.68,70.13,84.29,69.35,83.75,68.85Z" transform="translate(-7.09 -7.09)"/><path d="M62.32,66.64a33.64,33.64,0,0,0-5.85.38,33,33,0,0,0-3.92.86L52.87,69a32.63,32.63,0,0,1,3.78-.82,33,33,0,0,1,10.77.13l.18-1c-1.45-.11-3-.2-3.37-.22A5.42,5.42,0,0,1,62.32,66.64Z" transform="translate(-7.09 -7.09)"/><path d="M68.11,70.3l-.26-1.13a53.73,53.73,0,0,0-6.34,1.9,52.93,52.93,0,0,0-8.12,3.77l.57,1A53.29,53.29,0,0,1,68.11,70.3Z" transform="translate(-7.09 -7.09)"/><path d="M58.89,79.69l1,.62a17.67,17.67,0,0,1,8.78-7.23L68.25,72a19.53,19.53,0,0,0-3.93,2A19.19,19.19,0,0,0,58.89,79.69Z" transform="translate(-7.09 -7.09)"/><path d="M103.38,68.61a20.15,20.15,0,0,1,3.92.41l.23-1.14a21.62,21.62,0,0,0-3.28-.41,4.43,4.43,0,0,1-.35.56A3.64,3.64,0,0,1,103.38,68.61Z" transform="translate(-7.09 -7.09)"/><path d="M97.47,72a11.88,11.88,0,0,1,1.79.26,13,13,0,0,1,5,2.33l.7-.93a14.27,14.27,0,0,0-5.45-2.53,14.47,14.47,0,0,0-1.73-.27c0,.14-.09.29-.13.44S97.53,71.76,97.47,72Z" transform="translate(-7.09 -7.09)"/><path d="M96.74,74.49a12.83,12.83,0,0,1,1.22.64,13.61,13.61,0,0,1,3.59,3.1l.9-.73a14.75,14.75,0,0,0-3.9-3.37,14.55,14.55,0,0,0-1.47-.76c0,.09,0,.19-.08.28C96.9,74,96.81,74.29,96.74,74.49Z" transform="translate(-7.09 -7.09)"/></g><g id="eyes"><path id="inner_right" class="cls-1" d="M92.86,65.15a2.44,2.44,0,0,0,1.67,1.93c1.47.6,2.94-.12,4.11.16.9,0,1.52,0,2.14,0a1.92,1.92,0,0,0,2.16-1.71,12.51,12.51,0,0,0,.35-3.8c-.09-2.28-1.09-3.35-3.36-3.69s-4.67.07-7,.23c-.43,0-.7.07-.61.62C92.68,60.94,92.47,63.07,92.86,65.15Zm2.61-5.08c.24-.53.39-1.12,1.24-1s2,.17,2.14,1.46a11,11,0,0,1-.65,4.84,1.75,1.75,0,0,1-2.13,1.19c-.92-.17-1.23-.86-1.3-1.71l-.1-1.13A9.61,9.61,0,0,1,95.47,60.07Z" transform="translate(-7.09 -7.09)"/><path id="inner_left" class="cls-1" d="M77.56,54.84a24.21,24.21,0,0,0-6.82-.65,29,29,0,0,0-4.62.29c-2.19.27-3.47,1.31-3.79,3.12a14.56,14.56,0,0,0,.3,6,1.14,1.14,0,0,0,1,1,57.3,57.3,0,0,0,12.19.87c1.8-.11,2.63-1,3-2.76.3-1.53.48-3.09.82-4.62C80,56,79.67,55.35,77.56,54.84Zm-3.07,7.07a2,2,0,0,1-2.27,1.52,1.89,1.89,0,0,1-1.88-2,9.27,9.27,0,0,1,.5-4.54c.56-1.26,1.14-1.57,2.56-1.28a1.91,1.91,0,0,1,1.67,2c0,.29,0,.58,0,.87A10.19,10.19,0,0,1,74.49,61.91Z" transform="translate(-7.09 -7.09)"/><path id="pupil_left" d="M73.4,55.59c-1.42-.29-2,0-2.56,1.28a9.27,9.27,0,0,0-.5,4.54,1.89,1.89,0,0,0,1.88,2,2,2,0,0,0,2.27-1.52,10.19,10.19,0,0,0,.59-3.46c0-.29,0-.58,0-.87A1.91,1.91,0,0,0,73.4,55.59Z" transform="translate(-7.09 -7.09)"/><path id="pupil_right" d="M96.07,66.58a1.75,1.75,0,0,0,2.13-1.19,11,11,0,0,0,.65-4.84c-.12-1.29-1.17-1.3-2.14-1.46s-1,.45-1.24,1a9.61,9.61,0,0,0-.8,3.67l.1,1.13C94.84,65.72,95.15,66.41,96.07,66.58Z" transform="translate(-7.09 -7.09)"/><path id="glasses" class="cls-5" d="M105.27,61.83c-.17-3.62-1.84-5.35-5.43-5.83a19.42,19.42,0,0,1-3.65-.4h0c-.3,0-.6.17-.9.22a1.55,1.55,0,0,1-.43,0l-.09,0a1.36,1.36,0,0,1-.39-.18h0a4.28,4.28,0,0,0-3.89,4c0,.54.06,1.19-.85.75a8.75,8.75,0,0,0-8.55.54,14.89,14.89,0,0,1,.52-2.61c1-2.63,0-4.57-2.6-5.46a12.36,12.36,0,0,0-1.55-.44,32.83,32.83,0,0,0-11.94-.17c-3.3.57-5.27,2.52-5.49,5.35a23.87,23.87,0,0,0,.07,5.07c.31,2.21,1,3.4,2.22,4a5.42,5.42,0,0,0,1.91.39c.39,0,1.92.11,3.37.22.94.06,1.84.13,2.4.19a34.57,34.57,0,0,0,6.14.29,4.88,4.88,0,0,0,4.32-3.06,2,2,0,0,1,.66-.88A9,9,0,0,1,85.69,62a5.08,5.08,0,0,1,5,3.66,5.44,5.44,0,0,0,6,4l.07,0a2.05,2.05,0,0,1,.49-.13h.17a1.71,1.71,0,0,1,.49.1l.17.06h0l2.82-.15a3.77,3.77,0,0,0,2.41-.88,3.64,3.64,0,0,0,.52-.58,4.43,4.43,0,0,0,.35-.56,6.93,6.93,0,0,0,.4-.91A12.5,12.5,0,0,0,105.27,61.83ZM79.58,58.1c-.34,1.53-.52,3.09-.82,4.62-.35,1.79-1.18,2.65-3,2.76a57.3,57.3,0,0,1-12.19-.87,1.14,1.14,0,0,1-1-1,14.57,14.57,0,0,1-.3-6c.32-1.81,1.6-2.85,3.79-3.12a29,29,0,0,1,4.62-.29,24.21,24.21,0,0,1,6.82.65C79.67,55.35,80,56,79.58,58.1Zm15,9a2.44,2.44,0,0,1-1.67-1.93c-.39-2.08-.18-4.21-.54-6.28-.09-.55.18-.59.61-.62,2.33-.16,4.65-.59,7-.23s3.27,1.41,3.36,3.69a12.51,12.51,0,0,1-.35,3.8,1.92,1.92,0,0,1-2.16,1.71c-.62,0-1.24,0-2.14,0C97.47,67,96,67.68,94.53,67.08Z" transform="translate(-7.09 -7.09)"/></g><g id="border"><path d="M47.78,102.38A17.58,17.58,0,0,1,50.68,99c3.71-3.52,8.15-3,11.06,1.21.3.44.56.91.83,1.37.12.19.26.34.49.24a.39.39,0,0,0,.2-.52,6.14,6.14,0,0,0-.29-1,8.42,8.42,0,0,0-8.11-5,.86.86,0,0,1-.94-.35c-3.38-4.74-6.8-9.44-8.29-15.21-1.7-6.57-2.72-13.18-1.18-19.94.09-.38.21-.76.31-1.13.57.07,1.11.86,1.42.45s-.45-.83-.75-1.22a13.58,13.58,0,0,1-2.87-5.27,5.2,5.2,0,0,1,5.33-6.49,8.55,8.55,0,0,1,3.34.82c.48.22.93.49,1.08-.35.07-.39.48-.55.76-.77a29.78,29.78,0,0,1,16.58-6.41c5-.42,10-.19,15-.36A19.86,19.86,0,0,0,94.7,35.74a8,8,0,0,0,2-1.89l-1.39-.56A10.91,10.91,0,0,1,92,35.7a18.79,18.79,0,0,1-8.68,2.11c-4.34,0-8.68-.05-13,.25a30.72,30.72,0,0,0-18,6.74,2,2,0,0,1-2.2.4c-4.37-1.43-8.5,1-9.1,5.29a9,9,0,0,0,2.09,6.67,1.42,1.42,0,0,1,.27,1.33,41.81,41.81,0,0,0,4.6,30,61.45,61.45,0,0,0,5.23,7.24,16.7,16.7,0,0,0-6,5.17,32.36,32.36,0,0,0-4.7,9.26c.33.36.66.71,1,1.06A43.34,43.34,0,0,1,47.78,102.38Z" transform="translate(-7.09 -7.09)"/><path d="M97.2,36.18c-.4,1.91-.64,3.92-2.28,5.31a.37.37,0,0,0-.12.53.6.6,0,0,0,.77.19,10.93,10.93,0,0,0,2.35-1.1,19.05,19.05,0,0,0,3.36-3c.88,3.43-1.24,5.68-2.75,8.13l.06.1c.35.29,1.32-.15,1.71-.35.68-.34,2.84-1.57,2.81-1.14a19.3,19.3,0,0,1-1.62,4.55c-1.08,1.69-4,4.07-5.79,5.56-.25.2-.43.35-.84.13-.65-.35-.67.09-.48.58a1.36,1.36,0,0,0,.39.18l.09,0a1.55,1.55,0,0,0,.43,0c.3,0,.6-.17.9-.22l1.34-.89a14.37,14.37,0,0,0,5.24-5.48c.48-1,1.69-5.22,1.21-5.74s-2.12,1.31-3.14,1.19c.45-.66.85-1.18,1.2-1.74a6.18,6.18,0,0,0,.41-5.59c-.43-1.16-1.22-1.27-2-.37-.33.37-.62.77-.94,1.14a4.8,4.8,0,0,1-2.36,1.79,8.61,8.61,0,0,0,1.56-5.15l-1.51-.7A4.49,4.49,0,0,1,97.2,36.18Z" transform="translate(-7.09 -7.09)"/><path d="M57.53,114.25c.27-.39.55-.78.84-1.16C58,115.9,57.48,118.5,57,121c.48.24,1,.46,1.45.68.67-3.38,1.35-6.89,1.77-10.86.23-.25.46-.51.7-.76,0,0,0-.06,0-.08H61c.34-.44.68-.88,1-1.33.13-.18.47-.33.29-.6s-.53-.07-.76.06a7.13,7.13,0,0,0-1.33.88c-3,2.77-5.42,5.89-6.17,10,0,.12,0,.25-.06.37.46.27.93.53,1.41.79A11.34,11.34,0,0,1,57.53,114.25Z" transform="translate(-7.09 -7.09)"/></g><g id="hair_out"><path id="hair_outer" class="cls-1" d="M97,33.49c-.1.12-.19.25-.29.36l.49.21A4.3,4.3,0,0,0,97,33.49Z" transform="translate(-7.09 -7.09)"/><path id="hair_outer-2" data-name="hair_outer" d="M97,33.49a4.3,4.3,0,0,1,.2.57l1.51.7a8.38,8.38,0,0,0-.44-2.37c-.17-.51-.27-1.09-.92-1.19s-.87.42-1.11.83a7.84,7.84,0,0,1-.92,1.26l1.39.56C96.77,33.74,96.86,33.61,97,33.49Z" transform="translate(-7.09 -7.09)"/></g><g id="hand"><path class="cls-1" d="M76.2,120.05c-2-1.19-3.94-.41-5.69.69a45.64,45.64,0,0,0-4.06,3l-.68.5a14.27,14.27,0,0,1-5.43,2.32,7,7,0,0,1-2.87,0A4.16,4.16,0,0,1,56,126a5.34,5.34,0,0,1-2.08-4.15,10.74,10.74,0,0,1,0-2.47,47.81,47.81,0,0,1-10.45-8.19A47.66,47.66,0,0,0,41,122.46,14.69,14.69,0,0,0,42.32,131c1.54,2.94,4.35,5,8.44,6.33a28.78,28.78,0,0,0,4.08,1c.52.09,1,.16,1.57.22s1,.1,1.51.13a27,27,0,0,0,12.66-2.42c4.42-2,7.38-5.37,7.94-10.35,0-.14,0-.28,0-.42C78.73,123.28,78.22,121.25,76.2,120.05Z" transform="translate(-7.09 -7.09)"/><path d="M79.14,121.07a5.53,5.53,0,0,0-6.6-2.83,14.62,14.62,0,0,0-5.62,3.28,22.6,22.6,0,0,1-3.05,2.22,10.56,10.56,0,0,1-3.38,1.3,10.94,10.94,0,0,1-1.71.21,3.64,3.64,0,0,1-1-.07,4.64,4.64,0,0,1-1.42-.81,3.37,3.37,0,0,1-.68-1.46,9.18,9.18,0,0,1-.29-2.72c-.48-.26-1-.52-1.41-.79a10.74,10.74,0,0,0,0,2.47A5.34,5.34,0,0,0,56,126a4.16,4.16,0,0,0,1.46.62,7,7,0,0,0,2.87,0,14.27,14.27,0,0,0,5.43-2.32l.68-.5a45.64,45.64,0,0,1,4.06-3c1.75-1.1,3.67-1.88,5.69-.69s2.53,3.23,2.36,5.37c0,.14,0,.28,0,.42-.56,5-3.52,8.37-7.94,10.35a27,27,0,0,1-12.66,2.42c-.51,0-1-.07-1.51-.13s-1-.13-1.57-.22a28.78,28.78,0,0,1-4.08-1c-4.09-1.3-6.9-3.39-8.44-6.33A14.69,14.69,0,0,1,41,122.46a47.66,47.66,0,0,1,2.48-11.25c-.34-.35-.67-.7-1-1.06-.12.33-.24.67-.35,1-.28.79-1.94,6.67-2.25,8.72-.48,3.22-.77,6.44.28,9.57.1.3.21.61.34.91,1.9,4.5,5.52,7,10,8.34a38.9,38.9,0,0,0,4.36,1c.4.06,1.18.17,1.58.21a34.83,34.83,0,0,0,6.06,0,27.45,27.45,0,0,0,10-3.08,13.93,13.93,0,0,0,7.4-9.88,11.78,11.78,0,0,0,.17-1.17A8.2,8.2,0,0,0,79.14,121.07Z" transform="translate(-7.09 -7.09)"/></g><path d="M120.21,82.89c-.68-3.08-1.68-6.06-4.08-8.3a7.33,7.33,0,0,0-7.45-1.77,6.61,6.61,0,0,0-4.76,5.33,17,17,0,0,0,0,7.13c.75,3.76-1,6.64-4.23,8.37-2.94,1.58-6.19,2.16-9.39,2.95a4.08,4.08,0,0,1-5-2h0a70.1,70.1,0,0,1-3.64-6.36c-.19-.42-.1-.67.41-.76s2.58-.84,3.12-1A19.17,19.17,0,0,0,91.08,83a22.06,22.06,0,0,0,5.6-8.34,1.16,1.16,0,0,0,.06-.15c.07-.2.16-.49.26-.84,0-.09.06-.19.08-.28.12-.42.25-.89.39-1.37.06-.24.13-.47.19-.7s.09-.3.13-.44c.13-.46.25-.89.36-1.22h0L98,69.58a1.71,1.71,0,0,0-.49-.1h-.17a2.05,2.05,0,0,0-.49.13c-2.57,10.7-8.67,15.27-17.37,16.93-6.1,1.17-11.6-.15-16.85-3.22a81.89,81.89,0,0,1-7.21-4.57c-.18-.13-.38-.42-.63-.21s0,.44.18.59c4.6,3.78,9.27,7.45,15.26,8.84a22.27,22.27,0,0,0,9.34,0c1.08-.21,1.19.06,1.53,1a24.08,24.08,0,0,0,5.73,9.26c2.7,2.67,5.46,5.28,8.08,8a26.54,26.54,0,0,1,4.83,7.32,56,56,0,0,1,1.89,6.07c.4-.23.8-.46,1.19-.7-.21-.89-.45-1.86-.69-2.67l-1.64-4.32h0L99,109.17a26,26,0,0,0,8.65-2.43,77.16,77.16,0,0,0,6.76-3.78,2.61,2.61,0,0,1,.47-.47,13.75,13.75,0,0,0,5.17-6.91C121.57,91.37,121.15,87.12,120.21,82.89Zm-3.38,15.67c-1.72,2.38-4.24,3.75-6.68,5.21A34.09,34.09,0,0,1,98.73,108a.69.69,0,0,1-.82-.28c-2.59-3.52-6-6.26-9-9.32l-.59-.52c4.52-.46,8.68-1.23,12.44-3.4A8.45,8.45,0,0,0,105.17,85a17.22,17.22,0,0,1,0-6.28c.49-2.5,1.8-4.24,4.38-4.77a6,6,0,0,1,6.4,2.5c2.6,3.61,3.32,7.82,3.57,12.16A14.92,14.92,0,0,1,116.83,98.56Z" transform="translate(-7.09 -7.09)"/></svg>